<?xml version="1.0" encoding="UTF-8"?>
<!DOCTYPE svg PUBLIC "-//W3C//DTD SVG 1.1//EN" "http://www.w3.org/Graphics/SVG/1.1/DTD/svg11.dtd">
<!-- Creator: CorelDRAW X7 -->
<svg xmlns="http://www.w3.org/2000/svg" xml:space="preserve" width="211.667mm" height="67.7332mm" version="1.1" style="shape-rendering:geometricPrecision; text-rendering:geometricPrecision; image-rendering:optimizeQuality; fill-rule:evenodd; clip-rule:evenodd"
viewBox="0 0 8136 2603"
 xmlns:xlink="http://www.w3.org/1999/xlink">
 <defs>
  <style type="text/css">
   <![CDATA[
    .fil0 {fill:none}
    .fil2 {fill:#00C25D}
    .fil3 {fill:#58B560}
    .fil4 {fill:#64C76B}
    .fil1 {fill:black;fill-rule:nonzero}
   ]]>
  </style>
 </defs>
 <g id="Layer_x0020_1">
  <metadata id="CorelCorpID_0Corel-Layer"/>
  <g id="_360288632">
   <polygon class="fil0" points="0,0 8136,0 8136,2603 0,2603 "/>
   <g>
    <path class="fil1" d="M3416 242c29,0 54,7 77,20 23,13 41,30 54,51 14,23 23,47 28,74 4,26 6,60 6,102 0,43 -2,77 -6,103 -5,27 -14,51 -28,74 -13,21 -31,38 -54,51 -23,13 -48,20 -77,20 -46,0 -86,-20 -119,-59l0 52 -62 0 0 -664 62 0 0 235c33,-39 73,-59 119,-59zm77 103c-19,-29 -48,-43 -85,-43 -38,0 -66,14 -86,43 -10,16 -17,34 -20,56 -3,22 -5,52 -5,88 0,37 2,67 5,89 3,22 10,40 20,56 20,29 48,43 86,43 37,0 66,-14 85,-43 11,-16 18,-34 21,-56 3,-22 4,-52 4,-89 0,-36 -1,-66 -4,-88 -3,-22 -10,-40 -21,-56zm186 -96l62 0 0 278c0,40 2,67 7,80 6,23 19,40 36,52 17,12 37,18 59,18 23,0 43,-6 60,-18 17,-12 29,-29 36,-52 5,-13 7,-40 7,-80l0 -278 62 0 0 282c0,16 0,28 0,36 -1,9 -1,19 -3,32 -2,12 -4,23 -8,33 -12,34 -31,60 -57,78 -27,18 -59,27 -97,27 -37,0 -69,-9 -96,-27 -26,-18 -45,-44 -57,-78 -4,-10 -6,-21 -8,-33 -2,-13 -3,-23 -3,-32 0,-8 0,-20 0,-36l0 -282zm447 -144c7,-8 17,-12 28,-12 12,0 21,4 28,12 8,7 11,17 11,30 0,12 -3,22 -11,30 -7,7 -16,11 -28,11 -11,0 -21,-4 -28,-11 -7,-8 -11,-18 -11,-30 0,-13 4,-23 11,-30zm59 625l-62 0 0 -481 62 0 0 481zm220 -55l10 56c-11,4 -24,6 -38,6 -23,0 -42,-10 -57,-30 -11,-13 -16,-34 -16,-62l0 -579 63 0 0 579c0,13 1,22 4,26 3,4 8,6 15,6 6,0 12,-1 19,-2zm229 -433c46,0 85,20 119,59l0 -235 62 0 0 664 -62 0 0 -52c-34,39 -73,59 -119,59 -29,0 -54,-7 -77,-20 -24,-13 -42,-30 -55,-51 -14,-23 -23,-47 -27,-74 -4,-26 -6,-60 -6,-103 0,-42 2,-76 6,-102 4,-27 13,-51 27,-74 13,-21 31,-38 55,-51 23,-13 48,-20 77,-20zm93 103c-19,-29 -48,-43 -85,-43 -37,0 -66,14 -85,43 -11,16 -18,34 -21,56 -3,22 -5,52 -5,88 0,37 2,67 5,89 3,22 10,40 21,56 19,29 48,43 85,43 37,0 66,-14 85,-43 11,-16 18,-34 21,-56 3,-22 5,-52 5,-89 0,-36 -2,-66 -5,-88 -3,-22 -10,-40 -21,-56zm504 385l-107 -481 63 0 78 370 92 -370 61 0 93 370 77 -370 64 0 -108 481 -61 0 -95 -380 -96 380 -61 0zm506 -625c7,-8 16,-12 28,-12 11,0 21,4 28,12 7,7 11,17 11,30 0,12 -4,22 -11,30 -7,7 -17,11 -28,11 -12,0 -21,-4 -28,-11 -8,-8 -11,-18 -11,-30 0,-13 3,-23 11,-30zm59 625l-62 0 0 -481 62 0 0 481zm131 -135l0 -291 -62 0 0 -55 62 0 0 -103 63 0 0 103 83 0 0 55 -83 0 0 291c0,32 1,51 4,58 6,16 18,24 36,24 13,0 29,-5 47,-14l24 55c-26,12 -51,19 -75,19 -24,0 -44,-6 -60,-19 -17,-12 -28,-29 -34,-51 -3,-12 -5,-35 -5,-72zm420 -353c25,0 47,6 68,16 20,11 37,25 50,43 8,11 15,22 20,34 5,13 9,26 10,41 2,15 3,27 4,36 0,10 1,23 1,40l0 278 -63 0 0 -273c0,-23 0,-39 -1,-50 0,-10 -2,-22 -6,-35 -4,-14 -9,-25 -17,-35 -19,-23 -45,-35 -78,-35 -33,0 -59,12 -78,35 -8,10 -14,21 -17,35 -4,13 -6,25 -6,35 -1,11 -1,27 -1,50l0 273 -63 0 0 -664 63 0 0 234c16,-19 33,-33 51,-43 19,-10 40,-15 63,-15z"/>
    <path class="fil1" d="M3196 2073l62 -107c122,68 230,102 323,102 37,0 70,-5 99,-15 29,-10 53,-23 70,-39 18,-15 32,-33 44,-54 11,-20 19,-41 23,-60 4,-19 7,-39 7,-59 0,-45 -11,-86 -33,-122 -22,-37 -57,-63 -106,-81 -24,-8 -62,-18 -114,-27 -52,-10 -91,-20 -117,-28 -75,-25 -132,-66 -171,-120 -40,-55 -60,-118 -60,-188 0,-91 32,-167 96,-229 64,-63 152,-94 262,-94 98,0 209,29 332,85l-53 110c-109,-51 -202,-76 -279,-76 -72,0 -127,20 -164,60 -37,39 -55,87 -55,144 0,44 11,84 34,119 24,36 59,62 108,78 22,7 60,16 113,26 53,10 94,20 122,31 74,27 130,68 167,123 38,55 56,118 56,189 0,46 -8,89 -24,130 -16,41 -40,78 -70,110 -31,33 -71,58 -121,77 -49,19 -104,29 -166,29 -69,0 -134,-11 -195,-31 -61,-20 -125,-48 -190,-83zm962 -1172l134 0 0 854 390 -503 157 0 -357 454 366 464 -161 0 -289 -376 -106 133 0 243 -134 0 0 -1269zm791 1616l30 -110c30,8 58,12 84,12 43,0 78,-11 107,-32 11,-9 21,-19 30,-32 8,-13 15,-24 19,-35 4,-10 9,-25 16,-45l33 -103 -349 -920 139 0 268 751 228 -751 136 0 -335 1053c-12,38 -25,69 -39,94 -14,25 -32,47 -56,66 -53,45 -119,68 -197,68 -33,0 -71,-5 -114,-16zm1279 -1279c66,0 126,17 180,50 53,33 93,80 118,139 9,20 15,43 19,69 4,27 7,48 7,66 1,18 1,44 1,78l0 530 -133 0 0 -522c0,-53 -1,-92 -4,-116 -2,-25 -9,-47 -19,-69 -17,-35 -43,-63 -77,-82 -35,-19 -74,-29 -118,-29 -44,0 -84,10 -118,29 -35,19 -61,47 -77,82 -11,22 -17,44 -20,69 -2,24 -3,63 -3,116l0 522 -134 0 0 -918 134 0 0 97c70,-74 151,-111 244,-111zm913 946c-69,0 -130,-13 -183,-37 -53,-25 -94,-58 -125,-102 -22,-29 -39,-65 -50,-106 -11,-42 -17,-77 -19,-105 -1,-29 -2,-70 -2,-123 0,-43 1,-76 2,-99 0,-22 4,-49 8,-81 6,-32 13,-61 23,-87 25,-63 67,-112 125,-149 59,-38 126,-57 203,-57 75,0 142,19 201,57 59,37 101,87 127,150 15,35 24,71 27,106 3,36 5,89 5,159l0 28 -587 0c0,37 0,67 2,89 1,22 5,49 13,81 8,31 20,57 35,78 41,56 106,84 195,84 78,0 163,-20 254,-62l51 106c-105,46 -207,70 -305,70zm208 -551c-1,-64 -9,-116 -25,-154 -16,-39 -42,-69 -78,-93 -36,-23 -77,-34 -123,-34 -48,0 -90,11 -125,34 -35,24 -60,54 -76,92 -16,40 -24,92 -25,155l452 0zm374 280l0 -556 -133 0 0 -105 133 0 0 -199 134 0 0 199 178 0 0 105 -178 0 0 556c0,61 2,98 8,110 14,32 39,47 76,47 30,0 64,-9 102,-27l52 105c-56,24 -110,36 -162,36 -51,0 -94,-12 -128,-35 -35,-23 -59,-56 -72,-99 -6,-22 -10,-67 -10,-137z"/>
    <path class="fil2" d="M50 970l1595 1170c-382,109 -703,70 -993,-219 -117,-116 -199,-270 -235,-430 -17,-73 -299,-249 -376,-290 -4,570 259,1037 798,1258 279,114 588,121 874,28 114,-38 703,-302 427,-462 -426,-246 -907,-477 -1346,-709 -184,-98 -630,-301 -744,-346z"/>
    <path class="fil2" d="M136 791l313 165c307,-900 1792,-801 1785,405l-1137 -301c-5,6 1056,418 1154,462 142,64 204,9 226,-87l0 -259c-6,-55 -15,-106 -21,-144 -109,-713 -724,-1073 -1416,-959 -200,33 -397,125 -552,256 -198,167 -218,269 -352,462z"/>
    <path class="fil2" d="M624 1046l2 -5 5 4 -7 1zm-12 -6l12 6c171,125 666,366 877,472 147,73 291,160 438,234 94,47 369,247 453,147 144,-171 -211,-250 -315,-291 -162,-65 -324,-128 -486,-192 -252,-101 -736,-324 -973,-382l-6 6z"/>
    <path class="fil3" d="M612 1040l6 -6c-17,-14 -49,-24 -72,-29 13,18 45,31 66,35z"/>
    <polygon class="fil4" points="624,1046 631,1045 626,1041 "/>
    <polygon class="fil3" points="546,1005 545,999 540,1003 "/>
    <polygon class="fil4" points="618,1034 612,1040 "/>
   </g>
  </g>
 </g>
</svg>
